<?xml version="1.0" encoding="utf-8"?>
<!-- Generator: Adobe Illustrator 19.0.0, SVG Export Plug-In . SVG Version: 6.00 Build 0)  -->
<svg version="1.1" id="Layer_1" xmlns="http://www.w3.org/2000/svg" xmlns:xlink="http://www.w3.org/1999/xlink" x="0px" y="0px"
	 viewBox="-189 363 232 68" style="enable-background:new -189 363 232 68;" xml:space="preserve">
<style type="text/css">
	.st0{fill:#2B8FCC;}
	.st1{fill:#0C5A89;}
	.st2{fill:#2D282A;}
	.st3{fill:#FFFFFF;}
	.st4{fill:#EFEFEF;}
	.st5{fill:#A38975;}
	.st6{fill:#C6AD99;}
</style>
<title>tabler</title>
<desc>Created with Sketch.</desc>
<g>
	<path d="M-98.4,405.9V387h10.9c1.3,0,2.6,0.2,3.7,0.7c1.1,0.5,2.1,1.1,2.9,1.9c0.8,0.8,1.5,1.8,1.9,2.9c0.5,1.1,0.7,2.4,0.7,3.8
		c0,1.4-0.2,2.6-0.7,3.8c-0.5,1.2-1.1,2.2-1.9,3.1c-0.8,0.9-1.8,1.5-2.9,2c-1.1,0.5-2.4,0.7-3.7,0.7H-98.4z M-87.4,402.6
		c0.8,0,1.6-0.2,2.4-0.5s1.3-0.7,1.9-1.3c0.5-0.5,0.9-1.2,1.2-2c0.3-0.8,0.4-1.6,0.4-2.5c0-0.9-0.1-1.7-0.4-2.5
		c-0.3-0.8-0.7-1.4-1.2-1.9c-0.5-0.5-1.2-1-1.9-1.3c-0.7-0.3-1.5-0.5-2.4-0.5h-7.7v12.3H-87.4z"/>
	<path d="M-74.5,405.9V387h3.3v18.9H-74.5z"/>
	<path d="M-63.9,392.1v13.8h-3.1v-17.2c0-0.6,0.2-1.1,0.5-1.4c0.3-0.4,0.7-0.5,1.2-0.5c0.2,0,0.5,0.1,0.7,0.2
		c0.2,0.1,0.5,0.3,0.7,0.5l13.3,13.2v-13.8h3.1v17.3c0,0.6-0.2,1.1-0.5,1.5c-0.3,0.3-0.7,0.5-1.2,0.5c-0.5,0-1-0.2-1.5-0.7
		L-63.9,392.1z"/>
	<path d="M-23.8,405.9l-2.8-4.8h-8.9l1.6-2.7h5.8l-4.2-7.1l-8.6,14.5h-3.8l10.9-18.1c0.2-0.3,0.4-0.6,0.7-0.8
		c0.3-0.2,0.6-0.3,0.9-0.3c0.4,0,0.7,0.1,0.9,0.3c0.3,0.2,0.5,0.5,0.7,0.8l10.9,18.1H-23.8z"/>
	<path d="M6.5,405.9l-3.6-13.3l-5.4,12.3c-0.2,0.4-0.4,0.7-0.7,0.9c-0.3,0.2-0.6,0.3-1,0.3c-0.8,0-1.3-0.4-1.7-1.2l-5.3-12.3
		l-3.6,13.3H-18l4.9-17.8c0.2-0.9,0.8-1.4,1.6-1.4c0.3,0,0.7,0.1,1,0.3c0.3,0.2,0.5,0.5,0.7,0.8l5.8,13.4l5.8-13.4
		c0.3-0.7,0.8-1.1,1.6-1.1c0.8,0,1.3,0.5,1.6,1.4l4.8,17.8H6.5z"/>
	<path class="st0" d="M12.9,405.9V387h3.3v18.9H12.9z"/>
	<path class="st0" d="M26.5,405.9v-15.6h-7.2V387H37v3.3h-7.2v15.6H26.5z"/>
</g>
<g>
	<path class="st0" d="M-130.4,422.7c-3.1-4.3-6.7-6.4-10.6-6.2c-4.8,0.3-8.5,3.9-8.5,4l-0.6,0.6l-0.2-0.9c-0.6-2.8-3.2-7.4-13.4-6.8
		c-1.4,0.1-2.4,0.3-2.4,0.3l-1,0.2l0.5-0.9c2-3.5,2.4-6.7,1.2-9.5c-2.5-5.8-10.9-8.1-11-8.1l-1.8-0.5l1.8-0.5
		c7.7-2.1,13-5.5,15.2-10c1.7-3.4,1-6.1,1-6.2l-0.5-2.1l1.3,1.8c2.8,3.4,5.8,5.3,8.9,5h0c6-0.3,10.8-7.4,10.8-7.4l0.8-1.2l0.1,1.1
		c0.6,6,3.3,8.7,8.1,8.4c0,0,0,0,0,0c4.6,0,9.5-3.2,9.6-3.2l1.4-0.8l-0.7,1.6c-1.3,2.7-1.4,5.4-0.4,7.8c2.5,5.8,11.1,8.7,11.2,8.7
		l1.6,0.5l-1.6,0.4c-2.8,0.7-4.9,2.2-6.1,4.4c-2.6,4.6-0.8,10.8-0.8,10.9l0.3,0.9l-0.9-0.3c-1.1-0.4-2.2-0.6-3.3-0.5
		c-6,0.4-9,8.3-9.1,8.4l-0.3,0.8L-130.4,422.7z"/>
	<g>
		<path class="st1" d="M-160.1,377l-0.6-0.8l0.5,2C-160.2,377.8-160.1,377.4-160.1,377z"/>
		<path class="st1" d="M-164.9,405.4c0.3-1.7,0.1-3.3-0.5-4.8c-1.5-3.6-5.3-5.8-8-7c-1,0.3-1.9,0.6-3,0.9l-1.8,0.5l1.8,0.5
			c0.1,0,8.6,2.3,11,8.1C-165.2,404.1-165,404.7-164.9,405.4z"/>
		<path class="st1" d="M-121.4,384.4c0.2-1,0.5-1.9,0.9-2.9l0.7-1.6l-1.4,0.8c0,0,0,0-0.1,0.1C-121.5,382-121.6,383.2-121.4,384.4z"
			/>
		<path class="st1" d="M-117,411.9l-0.2-0.1c-1.1-0.4-2.2-0.6-3.3-0.5c-6,0.4-9,8.3-9.1,8.4l-0.3,0.8l-0.5-0.7
			c-3.1-4.3-6.7-6.4-10.6-6.2c-4.8,0.3-8.5,3.9-8.5,4l-0.6,0.6l-0.2-0.9c-0.6-2.8-3.2-7.4-13.4-6.8c-0.8,0-1.4,0.1-1.8,0.2
			c-0.3,0.8-0.6,1.5-1.1,2.3l-0.5,0.9l1-0.2c0,0,1-0.2,2.4-0.3c10.2-0.6,12.7,4,13.4,6.8l0.2,0.9l0.6-0.6c0,0,3.7-3.7,8.5-4
			c3.9-0.2,7.5,1.8,10.6,6.2l0.5,0.7l0.3-0.8c0-0.1,3.1-8,9.1-8.4c1.1-0.1,2.2,0.1,3.3,0.5l0.9,0.3l-0.3-0.9
			C-116.5,414.1-116.8,413.2-117,411.9z"/>
		<path class="st1" d="M-112.2,396.9c-1.5,0.8-2.8,1.9-3.6,3.4c-1.4,2.4-1.5,5.4-1.4,7.6c0.1-1.5,0.5-3.2,1.4-4.6
			c1.2-2.2,3.3-3.6,6.1-4.4l1.6-0.4l-1.6-0.5C-109.6,397.9-110.7,397.6-112.2,396.9z"/>
	</g>
	<path class="st2" d="M-130.5,422.8c-0.6-0.8-1.2-1.5-1.8-2.2c-0.7-0.7-1.4-1.3-2.2-1.9c-1.6-1.1-3.4-1.8-5.3-1.9
		c-0.2,0-0.5,0-0.7,0c-0.2,0-0.5,0-0.7,0.1c-0.2,0-0.5,0.1-0.7,0.1l-0.7,0.2c-0.9,0.2-1.8,0.6-2.6,1c-0.8,0.4-1.6,1-2.4,1.5
		c-0.4,0.3-0.7,0.6-1.1,0.9l-0.2,0.2c-0.1,0.1-0.1,0.2-0.2,0.2l-0.5,0.5l-0.7,0.8l-0.3-1.1c-0.1-0.4-0.2-0.9-0.3-1.2
		c-0.1-0.4-0.3-0.7-0.4-1.1c-0.4-0.7-0.8-1.3-1.4-1.9c-1.1-1.1-2.6-1.7-4.2-2.1c-1.6-0.4-3.2-0.5-4.9-0.5c-0.8,0-1.7,0.1-2.5,0.1
		c-0.4,0-0.8,0.1-1.2,0.2l-0.3,0l-0.3,0.1l-0.6,0.1l-2.2,0.4l1.1-2c0.3-0.5,0.6-1,0.8-1.4c0.1-0.2,0.2-0.5,0.4-0.7
		c0.1-0.2,0.2-0.5,0.3-0.7c0.4-1,0.7-2,0.8-3c0.1-0.5,0.1-1,0-1.5c0-0.5-0.1-1-0.3-1.5c-0.3-1-0.7-1.8-1.3-2.7c-1.2-1.7-3-3-4.8-4
		c-0.9-0.5-1.9-1-2.9-1.4c-0.5-0.2-1-0.4-1.5-0.5l-1.6-0.5l-2.2-0.6l2.2-0.5l1.8-0.4c0.6-0.2,1.2-0.3,1.7-0.5
		c1.1-0.3,2.3-0.7,3.4-1.2c1.1-0.5,2.2-0.9,3.2-1.5c1-0.6,2-1.2,2.9-2c0.9-0.8,1.8-1.6,2.5-2.5c0.7-0.9,1.3-2,1.7-3.1
		c0.2-0.6,0.4-1.1,0.5-1.7c0.1-0.6,0.2-1.2,0.2-1.7c0-0.6,0-1.2-0.2-1.7l-0.4-1.8l-0.5-2l1.3,1.7l1,1.3c0.3,0.4,0.7,0.8,1,1.2
		c0.7,0.8,1.5,1.5,2.3,2.1c0.8,0.6,1.7,1.1,2.7,1.4c0.9,0.3,1.9,0.4,2.9,0.3l0.1,0c0.2,0,0.5-0.1,0.8-0.1c0.1,0,0.3-0.1,0.4-0.1
		c0.1,0,0.3-0.1,0.4-0.1c0.6-0.2,1.1-0.4,1.6-0.6c1-0.5,2-1.2,2.9-2c0.9-0.8,1.7-1.6,2.5-2.6c0.4-0.5,0.7-0.9,1.1-1.4l0.2-0.3
		l0.2-0.4l0.5-0.8l1.6-2.5l0.3,3c0.1,1.1,0.2,2.1,0.4,3.1c0.2,1,0.6,1.9,1,2.7c0.5,0.8,1.1,1.5,1.9,1.9c0.8,0.4,1.7,0.6,2.6,0.7
		l0.4,0l0.4,0l0.4,0l0.2,0l0.2,0c0.2,0,0.5,0,0.7-0.1c0.2,0,0.5-0.1,0.7-0.1c1-0.2,2-0.5,2.9-0.8c1-0.4,1.9-0.8,2.8-1.3
		c0.2-0.1,0.5-0.2,0.7-0.4l0.3-0.2l0.3-0.2l1.5-0.8l3.3-1.9l-1.6,3.5l-0.7,1.5c-0.2,0.5-0.4,0.9-0.6,1.4c-0.3,0.9-0.5,1.9-0.4,2.8
		c0,0.9,0.2,1.8,0.6,2.7c0.4,0.8,0.9,1.7,1.5,2.4c1.3,1.5,2.9,2.7,4.7,3.8c0.9,0.5,1.8,1,2.8,1.4c0.5,0.2,1,0.4,1.4,0.6l1.5,0.5
		l3.7,1.3l-3.8,0.9l-1.3,0.3l-0.3,0.1l-0.3,0.1c-0.2,0-0.4,0.1-0.6,0.2c-0.8,0.2-1.5,0.6-2.2,1c-1.4,0.8-2.4,2.1-3.1,3.6
		c-0.7,1.5-0.9,3.2-1,5c0,0.9,0,1.7,0.2,2.6c0.1,0.4,0.1,0.9,0.2,1.3c0.1,0.4,0.2,0.9,0.3,1.3l0.2,1l-0.9-0.4l-1-0.4
		c-0.3-0.1-0.7-0.2-1-0.3c-0.7-0.2-1.4-0.3-2.1-0.2c-0.7,0-1.4,0.2-2.1,0.5c-0.7,0.3-1.3,0.7-1.9,1.1c-1.2,0.9-2.2,2-3,3.3
		c-0.8,1.3-1.5,2.6-2,4l-0.1,0.2l-0.1-0.2L-130.5,422.8z M-130.3,422.6l0.5,0.7l-0.2,0c0.1-0.4,0.3-0.7,0.4-1.1
		c0.1-0.4,0.3-0.7,0.5-1c0.3-0.7,0.7-1.4,1.1-2c0.8-1.3,1.8-2.5,3-3.5c1.2-1,2.7-1.7,4.3-1.9c0.8-0.1,1.6-0.1,2.4,0.1
		c0.4,0.1,0.8,0.2,1.2,0.3l1.1,0.4l-0.6,0.6c-0.1-0.4-0.3-0.8-0.4-1.3c-0.1-0.4-0.2-0.9-0.3-1.4c-0.2-0.9-0.3-1.8-0.4-2.8
		c-0.1-1.9,0-3.8,0.7-5.6l0.1-0.3c0-0.1,0.1-0.2,0.1-0.3l0.3-0.7c0.2-0.4,0.5-0.9,0.8-1.3c0.6-0.8,1.3-1.5,2.2-2.1
		c0.8-0.6,1.7-1,2.6-1.3c0.2-0.1,0.5-0.2,0.7-0.2l0.4-0.1l0.3-0.1l1.3-0.4l-0.1,2.2l-1.6-0.5c-0.6-0.2-1.1-0.4-1.6-0.6
		c-1-0.4-2.1-0.9-3-1.5c-2-1.1-3.9-2.4-5.4-4.2c-0.8-0.9-1.5-1.9-2-3c-0.5-1.1-0.8-2.4-0.8-3.6c0-1.2,0.2-2.5,0.6-3.6
		c0.2-0.6,0.4-1.1,0.7-1.6l0.7-1.5l1.8,1.6l-1.4,0.8l-0.4,0.2l-0.4,0.2c-0.3,0.1-0.5,0.3-0.8,0.4c-1,0.5-2.1,1-3.1,1.4
		c-1.1,0.4-2.2,0.7-3.4,0.9c-0.3,0.1-0.6,0.1-0.9,0.1c-0.3,0-0.6,0-0.9,0.1l-0.4,0l-0.4,0l-0.4,0l-0.5,0c-1.2-0.1-2.5-0.4-3.6-1.1
		c-1.1-0.7-2-1.7-2.6-2.8c-0.6-1.1-1-2.2-1.2-3.4c-0.2-1.1-0.3-2.3-0.4-3.4l1.9,0.4l-0.5,0.8l-0.3,0.4c-0.1,0.2-0.2,0.3-0.3,0.4
		c-0.4,0.5-0.8,1-1.2,1.5c-0.9,1-1.8,1.9-2.8,2.7c-1,0.8-2.1,1.5-3.3,2.1c-0.6,0.3-1.2,0.5-1.9,0.7c-0.2,0-0.3,0.1-0.5,0.1
		c-0.2,0-0.3,0.1-0.5,0.1c-0.3,0.1-0.7,0.1-1,0.1l0.1,0c-1.2,0.1-2.4-0.1-3.5-0.5c-1.1-0.4-2.1-1-2.9-1.7c-0.9-0.7-1.6-1.5-2.4-2.3
		c-0.4-0.4-0.7-0.9-1-1.3l-0.9-1.3l0.8-0.4l0.4,1.8l0,0.2l0,0.1l0,0.1c0,0.2,0,0.3,0.1,0.5c0,0.3,0,0.6,0,0.9c0,1.3-0.3,2.5-0.7,3.7
		c-0.9,2.3-2.5,4.3-4.4,5.9c-0.9,0.8-2,1.5-3,2.1c-1,0.6-2.2,1.2-3.3,1.7c-0.6,0.2-1.1,0.5-1.7,0.7c-0.6,0.2-1.1,0.4-1.7,0.6
		c-0.6,0.2-1.2,0.4-1.7,0.6l-1.7,0.5l0-1.2l1.6,0.4c0.6,0.1,1.1,0.3,1.7,0.5c1.1,0.4,2.2,0.8,3.2,1.3c2.1,1,4.1,2.4,5.6,4.3
		c0.8,0.9,1.4,2,1.8,3.3c0.2,0.6,0.3,1.2,0.4,1.8c0.1,0.6,0.1,1.3,0,1.9c-0.1,1.2-0.4,2.4-0.9,3.5c-0.4,1.1-1,2.2-1.6,3.1l-1.1-1.6
		l0.6-0.1l0.3-0.1l0.3-0.1c0.5-0.1,0.9-0.1,1.3-0.2c0.9-0.1,1.8-0.1,2.7-0.1c1.8,0,3.6,0.2,5.4,0.8c1.8,0.5,3.5,1.4,4.8,2.8
		c0.6,0.7,1.2,1.5,1.5,2.4c0.2,0.4,0.3,0.9,0.4,1.3c0.1,0.5,0.2,0.9,0.3,1.3l-1-0.3l0.5-0.5c0.1-0.1,0.2-0.2,0.3-0.3l0.3-0.2
		c0.4-0.3,0.8-0.6,1.2-0.9c0.8-0.6,1.7-1,2.6-1.4c0.9-0.4,1.9-0.7,2.8-0.9c1-0.2,2-0.2,3-0.2c1,0.1,2,0.3,2.9,0.7
		c0.9,0.4,1.8,0.9,2.6,1.4C-132.8,419.6-131.5,421.1-130.3,422.6z"/>
</g>
<g>
	<g id="Layer0_1_MEMBER_0_FILL">
		<path class="st3" d="M-128,392.8c-2.3-0.8-4.1-2.4-6-4c-0.6-0.4-1.7-0.4-2.1,0c-4.4,6.1-9.6,11.8-15.1,17.3
			c0.4,1.3,1.3,2.7,1.7,3.2c0.2,0.2,0.5,0.6,1,1.1c0.8,0.7,1.6,1.3,2.5,1.7c0.3,0.1,0.9-0.1,1.2,0c2-2.5,4.7-5.7,8.3-9.8
			C-133.2,398.5-130.3,395.3-128,392.8 M-135.5,396.3c0.6-0.7,1.1-0.8,1.6-0.4c0.5,0.4,0.4,0.9-0.2,1.6c-0.2,0.3-0.4,0.4-0.6,0.5
			c-0.3,0.2-0.7,0.1-1-0.1c-0.4-0.3-0.4-0.7-0.2-1.1L-135.5,396.3 M-136.6,401.4c-1.1,1.3-1.9,2.3-2.4,2.9c-0.5,0.6-1.1,1.2-1.8,1.9
			c-0.7,0.7-1.2,0.8-1.7,0.4c-0.4-0.4-0.5-0.9-0.2-1.6c0.3-0.7,1.4-2.1,3.3-4.4c1.9-2.2,3.2-2.8,4-1.6
			C-135.1,399.2-135.6,400-136.6,401.4z"/>
		<path class="st4" d="M-139,404.2c0.5-0.6,1.3-1.5,2.4-2.9c1.1-1.3,1.5-2.1,1.3-2.4c-0.8-1.2-2.1-0.7-4,1.6c-1.9,2.3-3,3.7-3.3,4.4
			c-0.3,0.7-0.3,1.2,0.2,1.6c0.4,0.4,1,0.3,1.7-0.4C-140.1,405.4-139.5,404.8-139,404.2 M-138.8,403.1c-0.2-0.1-0.1-0.4,0.1-0.7
			l0.4-0.4c0.5-0.6,0.9-0.8,1.1-0.6c0.2,0.2,0,0.5-0.5,1.1c-0.2,0.3-0.4,0.4-0.4,0.4C-138.5,403.2-138.7,403.3-138.8,403.1
			 M-133.9,395.9c-0.5-0.4-1-0.3-1.6,0.4l-0.4,0.5c-0.2,0.4-0.1,0.8,0.2,1.1c0.3,0.3,0.6,0.3,1,0.1c0.2-0.1,0.3-0.2,0.6-0.5
			C-133.5,396.9-133.4,396.3-133.9,395.9z"/>
		<path class="st4" d="M-132.2,388.8c-1.2-1.1-2.2-2.1-2.8-3.2c-0.6-0.9-0.7-1.6-0.5-2.1c-2.2,2.8-5.3,6.6-9.4,11.3
			c-4.1,4.7-7.4,8.2-9.7,10.6l-0.1,0c-0.4,0.4-0.2,1.2,0.4,2.2c0.6,1,1.5,2.1,2.8,3.2c1.3,1.1,2.4,1.9,3.5,2.4
			c1.1,0.5,1.8,0.5,2.2,0.1l0.1-0.1c0.3-0.4,0.6-0.8,0.9-1.2c-0.3-0.1-0.6-0.2-0.9-0.3c-0.8-0.4-1.6-0.9-2.5-1.7
			c-0.6-0.5-0.9-0.8-1.1-1c-0.4-0.5-0.8-1.4-1.2-2.6c5.5-5.5,10.4-11.2,14.8-17.4c0.4-0.4,1-0.3,1.6,0.1c1.8,1.6,3.9,2.8,6.1,3.7
			c0.5-0.5,1-1,1.5-1.5c-0.4,0.4-1.1,0.3-2.2-0.1C-129.8,390.7-131,389.9-132.2,388.8 M-134.4,384.2c-0.1,0.1-0.1,0.2-0.1,0.2
			c0.3-0.1,0.8,0,1.4,0.4c0.9,0.4,1.8,1,2.8,1.9c1,0.9,1.7,1.7,2.3,2.5c0.4,0.6,0.6,1.1,0.5,1.4c0.1,0,0.2-0.1,0.2-0.1
			c0.2-0.3,0.1-0.8-0.4-1.6c-0.5-0.8-1.3-1.6-2.3-2.5c-1-0.9-1.9-1.5-2.8-1.9C-133.6,384-134.2,383.9-134.4,384.2z"/>
		<path class="st3" d="M-135.4,383.5c0,0-0.1,0.1-0.1,0.1c-0.2,0.4-0.1,1.1,0.5,2.1c0.6,1,1.6,2.1,2.8,3.2c1.2,1.1,2.4,1.9,3.5,2.4
			c1.1,0.5,1.8,0.5,2.2,0.1c0,0,0,0,0,0l0,0c0.4-0.4,0.2-1.1-0.4-2.2c-0.6-1-1.6-2.1-2.8-3.2s-2.4-1.9-3.5-2.3
			C-134.3,383.1-135.1,383.1-135.4,383.5 M-134.5,384.4c0-0.1,0-0.2,0.1-0.2c0.2-0.3,0.8-0.2,1.7,0.2c0.9,0.4,1.8,1,2.8,1.9
			c1,0.9,1.7,1.7,2.3,2.5c0.5,0.8,0.7,1.3,0.4,1.6c-0.1,0.1-0.1,0.1-0.2,0.1c-0.3,0.1-0.8,0-1.4-0.3c-0.9-0.4-1.8-1.1-2.8-1.9
			c-1-0.9-1.7-1.7-2.3-2.5C-134.4,385.2-134.6,384.7-134.5,384.4z"/>
		<path class="st2" d="M-130.3,386.7c-1-0.9-1.9-1.5-2.8-1.9c-0.7-0.3-1.1-0.4-1.4-0.4c0,0.3,0.1,0.8,0.5,1.4
			c0.5,0.8,1.3,1.6,2.3,2.5c1,0.9,1.9,1.5,2.8,1.9c0.7,0.3,1.1,0.4,1.4,0.3c0-0.3-0.1-0.8-0.5-1.4
			C-128.6,388.4-129.4,387.5-130.3,386.7z"/>
	</g>
	<g transform="matrix( 1, 0, 0, 1, -46.5,12.9) ">
		<g>
			<g id="Layer0_1_MEMBER_1_FILL">
				<path class="st5" d="M-79.6,370.3c-1,0.4-1.8,0.7-2.3,0.8c-0.5,0.1-0.8-0.1-0.8-0.6c-0.3,0.3-0.6,0.6-0.9,0.9
					c-0.7,0.7-1.1,1.5-1.4,2.1c-0.1,0.2-0.1,0.3-0.2,0.5c0.3,0.6,0.8,1,1.3,1.1c0,0,0.1-0.1,0.1-0.2c0.1-0.3,0.2-0.6,0.3-0.9l0,0
					c0.2-0.5,0.6-1.1,1.1-1.7c1.3-1.5,3-2.1,5.2-2.1l0,0c2,0.1,3.8,0.7,5.2,2c1.3,1.1,1.8,2.4,1.5,3.8c-0.4,1.5-1.3,2.9-2.7,4.2
					c-1.6,1.4-3.8,3-6.7,5c-3,2-5,3.5-5.8,4.5c-1,1.1-1.3,2.4-1.1,3.8l0,0c0.2,1.2,0.9,2.3,2.2,3.4c0.7-0.1,1.2-0.4,1.3-1
					c-1.1-0.8-1.7-1.7-1.9-2.6c-0.2-0.9,0.1-1.7,0.7-2.5l0,0c0.8-0.9,2.6-2.3,5.5-4.2c1.9-1.2,3.5-2.4,4.8-3.4
					c-0.1-0.3-0.1-0.5-0.1-0.7c0.1-0.3,0.3-0.7,0.7-1.1c0.3-0.3,0.7-0.7,1.2-1.1c0.5-0.4,1.1-1.1,1.7-2.1c0.6-1,1-2,1-3.1
					c0-1.1-0.7-2.2-2-3.3c-1.3-1.1-2.7-1.7-4.2-1.8C-77.4,369.8-78.6,369.9-79.6,370.3z"/>
				<path class="st6" d="M-82,371.1c0.5-0.1,1.3-0.4,2.3-0.8c1-0.4,2.2-0.5,3.7-0.4c1.4,0.1,2.8,0.7,4.2,1.8c1.3,1.1,2,2.2,2,3.3
					c0,1.1-0.3,2.2-1,3.1c-0.6,1-1.2,1.7-1.7,2.1c-0.5,0.4-0.9,0.8-1.2,1.1c-0.4,0.4-0.6,0.8-0.7,1.1c-0.1,0.2,0,0.5,0.1,0.7
					c0.8-0.6,1.5-1.2,2.1-1.7c1.7-1.5,2.8-3.2,3.2-5c0.5-2-0.2-3.8-2-5.4c-1.7-1.5-3.7-2.3-6.2-2.4c-2.3-0.1-4.1,0.5-5.6,1.7
					C-82.8,371-82.5,371.2-82,371.1z"/>
			</g>
		</g>
	</g>
	<g transform="matrix( 0.997222900390625, 0.0740509033203125, -0.0740509033203125, 0.997222900390625, -35.45,2.3) ">
		<g>
			<g id="Layer0_1_MEMBER_2_MEMBER_0_FILL">
				<path class="st2" d="M-62.2,414.3c-0.5-0.1-0.7-0.3-0.8-0.4c-0.1-0.1-0.1-0.2,0-0.4c0.1-0.1,0.2-0.4,0.4-0.7
					c-0.5,0.2-0.8,0.3-0.9,0.2c-0.1,0-0.3-0.2-0.4-0.4c-0.1-0.2-0.3-0.6-0.4-1.2c-0.1,0.6-0.2,1-0.2,1.3c-0.1,0.3-0.2,0.5-0.4,0.7
					c-0.2,0.1-0.7,0.1-1.3-0.2c-0.1,0-0.1-0.1-0.2-0.1c0.1,0.1,0.2,0.2,0.3,0.3c0.3,0.2,0.5,0.4,0.5,0.5c0,0.1-0.1,0.2-0.3,0.4
					c-0.2,0.1-0.4,0.2-0.5,0.3l0,0c0.6,0.1,0.9,0.2,1,0.4c0.1,0.1-0.2,0.4-0.7,0.9c0.1-0.1,0.3-0.1,0.7-0.2c0.3-0.1,0.5,0,0.5,0.2
					c0,0.2,0,0.6-0.1,1.3c0,0.7-0.1,1.2-0.1,1.6c0.2-0.7,0.4-1.3,0.7-1.8c0.3-0.6,0.5-0.9,0.8-1c0.2-0.1,0.3-0.1,0.4-0.1
					c0.1,0,0.3,0.1,0.5,0.3c0.2,0.1,0.4,0.2,0.6,0.4c0.1,0,0.1,0.1,0.2,0.1c-0.1-0.1-0.2-0.2-0.3-0.3c-0.3-0.3-0.5-0.5-0.5-0.7
					c-0.1-0.1-0.1-0.2-0.1-0.3c0,0,0.1-0.1,0.3-0.2c0.2-0.1,0.5-0.2,1-0.3c0.3-0.1,0.5-0.1,0.7-0.2
					C-61.3,414.5-61.8,414.4-62.2,414.3z"/>
			</g>
		</g>
	</g>
</g>
</svg>
