<?xml version="1.0" encoding="utf-8"?>
<!-- Generator: Adobe Illustrator 19.0.0, SVG Export Plug-In . SVG Version: 6.00 Build 0)  -->
<svg version="1.1" id="Layer_1" xmlns="http://www.w3.org/2000/svg" xmlns:xlink="http://www.w3.org/1999/xlink" x="0px" y="0px"
	 viewBox="-189 363 232 68" style="enable-background:new -189 363 232 68;" xml:space="preserve">
<style type="text/css">
	.st0{fill:#023F88;}
	.st1{fill:#00A3B4;}
	.st2{fill:none;}
	.st3{font-family:'MS-UIGothic';}
	.st4{font-size:43px;}
	.st5{letter-spacing:2;}
</style>
<title>tabler</title>
<desc>Created with Sketch.</desc>
<g>
	<path class="st0" d="M-174.8,399.9l18.6,9.5l4.1-2.1c-1.1-3.9,0.3-7,2.2-8.2c4.1-2.5,7.8,0.1,7.8,0.1s1.9-5.6-2.9-6.7l0.2-2
		c-2.6-5.1-7.7-5.8-13-5.4c-4.4,0.4-7-0.7-7-0.7c1,3.6,3.5,4.5,3.5,4.5C-167.9,391.7-172.1,395.8-174.8,399.9z M-150.8,390
		c1.8,0.6,2.5,1.3,3.8,2.5c-2.3-0.3-5.9,0.4-5.9,0.4C-152.6,391.9-151.8,390.8-150.8,390z"/>
	<path class="st1" d="M-127.5,385.7l-1.8,9.9l-3.9,2l1.5-9.6l-24.6-13.9l-24.6,13.9l2.1,13.6l19.2,9.6l-3.2,1.6l-19.1-9.3l-3.2-17.7
		l28.7-16.5L-127.5,385.7z M-179.3,416.7l4.8,2.1l2.9-1.5l-8.2-3.7L-179.3,416.7z M-180.5,410.4l11.7,5.5l3-1.5l-15.4-7.3
		L-180.5,410.4z"/>
	<path class="st0" d="M-162,424.4l-3-1.3l33.8-16.1l-0.6,3.4L-162,424.4z M-133,416.6l0.6-3.1l-26.6,12.1l2.9,1.3L-133,416.6z
		 M-171.3,420.3l3.2,1.4l37.5-18.3l0.7-3.8L-171.3,420.3z"/>
</g>
<rect x="-136.5" y="382.1" class="st2" width="189" height="67"/>
<text transform="matrix(1 0 0 1 -112.5276 411.2891)" class="st0 st3 st4 st5">atmaca</text>
</svg>
